Coordinates
version=1
nRows=9
nColumns=42
inDegrees=yes

Units are S.I. units (second, meters, Newtons, ...)
If the header above contains a line with 'inDegrees', this indicates whether rotational values are in degrees (yes) or radians (no).

endheader
time	pelvis_tilt	pelvis_list	pelvis_rotation	pelvis_tx	pelvis_ty	pelvis_tz	hip_flexion_r	hip_adduction_r	hip_rotation_r	knee_angle_r	knee_angle_r_beta	ankle_angle_r	subtalar_angle_r	mtp_angle_r	hip_flexion_l	hip_adduction_l	hip_rotation_l	knee_angle_l	knee_angle_l_beta	ankle_angle_l	subtalar_angle_l	mtp_angle_l	lumbar_extension	lumbar_bending	lumbar_rotation	sh_tx_r	sh_ty_r	sh_tz_r	sh_plane_elev_r	sh_elev_r	sh_axial_rot_r	elbow_flex_r	pro_sup_r	sh_tx_l	sh_ty_l	sh_tz_l	sh_plane_elev_l	sh_elev_l	sh_axial_rot_l	elbow_flex_l	pro_sup_l
      0.00000000	     -7.11148630	     -0.24678517	     -1.03911295	      0.29069767	      0.94745243	      0.01444020	      7.80084133	     -1.56687852	      1.07160299	      6.49585986	      0.11337414	     -0.79569306	     -9.68054783	     -5.40434169	      9.00822200	     -5.78112879	     -6.55243838	     10.41827760	      0.18183325	     10.88379722	     -6.68310136	     -5.40434169	      0.11553955	      3.32169691	     -3.09545005	      0.00443921	     -0.01373359	     -0.00555075	      1.21169154	      6.84066184	     -2.82932238	     36.56586922	     85.22842062	      0.00749334	     -0.01450248	     -0.00564647	     18.12660471	      6.09030673	     -2.34020508	     29.45973971	     72.37822594
      0.01694910	     -8.80564286	     -0.30350947	     -1.25461177	      0.29335294	      0.94482966	      0.01357050	      9.18665897	     -1.52178112	      1.85099071	      5.83291410	      0.10180356	      2.27994155	     -7.67485164	     -6.02369013	     11.07778840	     -5.58665386	     -7.54222854	     10.32964026	      0.18028623	     10.92141490	     -5.42546713	     -6.02369013	      2.61120100	      3.71908005	     -3.30432365	      0.00266288	     -0.01622736	     -0.00619500	     -4.94119114	      5.66034173	     -1.56454767	     37.68156973	     85.17976833	      0.00573282	     -0.01648199	     -0.00620170	      8.89933528	      3.82889709	     -1.53896505	     28.76665429	     75.99502546
      0.03389830	     -8.49070936	      0.03441597	     -1.33064321	      0.30194113	      0.94715318	      0.01273291	      7.60761585	     -2.06094102	      1.23282149	      4.14928079	      0.07241861	      2.25861564	     -6.72389278	     -6.05515760	      9.96605862	     -5.30665888	     -8.72549729	      9.54290950	      0.16655519	     10.61678093	     -4.55898905	     -6.05515760	      2.73047371	      3.16207780	     -3.40585426	      0.00022457	     -0.01624211	     -0.00608157	     -5.54683329	      5.10647656	     -2.10147475	     37.68484918	     85.03451674	      0.00193457	     -0.01633689	     -0.00602746	      8.43352433	      3.86146021	     -1.90605418	     27.30640209	     76.04138729
      0.05084750	     -8.15623818	      0.32592208	     -1.19991924	      0.29730600	      0.94501961	      0.00881912	      6.88805854	     -2.58497918	      0.78449921	      3.49780265	      0.06104817	      2.87661759	     -6.04894985	     -6.42755660	      9.09035608	     -4.80354593	     -9.23760653	      8.73228415	      0.15240711	     10.73183595	     -4.16699677	     -6.42755660	      2.48165601	      2.70356996	     -3.18738511	      0.00041280	     -0.01695293	     -0.00598824	     -6.32114006	      4.82183266	     -1.17791150	     38.05027968	     84.10535909	     -0.00033457	     -0.01676253	     -0.00582578	      8.83371953	      4.28229336	     -1.52952016	     26.56877586	     75.97704708
      0.06779660	     -7.71113125	      0.40050931	     -0.81930767	      0.30086680	      0.94368516	      0.00358539	      5.94563266	     -2.88891515	      0.54351530	      2.77966623	      0.04851433	      3.24404267	     -5.46839102	     -6.68968463	      8.21880121	     -4.41439752	     -9.02124096	      8.03174877	      0.14018046	     10.80164989	     -4.14441225	     -6.68968463	      2.25943543	      2.54354542	     -2.82515674	     -0.00110247	     -0.01720141	     -0.00583752	     -4.48290343	      4.93062386	     -1.43433519	     38.19291701	     81.41419229	     -0.00142468	     -0.01692821	     -0.00563036	     11.38903563	      4.55730431	     -1.70004405	     26.10613334	     73.84902393
      0.08474580	     -7.40067317	      0.37704176	     -0.70238291	      0.30099985	      0.94494368	      0.00368123	      5.28700417	     -2.93605629	      0.09496152	      2.59512962	      0.04529356	      3.30792910	     -5.54438764	     -6.76487750	      7.62370116	     -4.20674315	     -8.93660221	      7.55937472	      0.13193598	     10.92997302	     -4.05045987	     -6.76487750	      2.09352960	      2.45477246	     -2.55946945	     -0.00174463	     -0.01738909	     -0.00564967	     -2.91018662	      4.98099288	     -1.10203791	     38.55042636	     80.85508752	     -0.00261502	     -0.01702775	     -0.00540602	     12.63062855	      4.73029918	     -1.90716508	     25.85710361	     73.24385803
      0.10169490	     -7.11199650	      0.39564444	     -0.70968685	      0.30461367	      0.94619699	     -0.00149321	      4.68116905	     -3.17704705	     -0.27588687	      2.42676750	      0.04235508	      3.19776074	     -5.55046800	     -6.77944878	      7.00784965	     -3.93735597	     -8.89659548	      7.16285204	      0.12501535	     10.98351240	     -4.09195828	     -6.77944878	      2.04327156	      2.45162926	     -2.30079197	     -0.00307833	     -0.01741402	     -0.00546556	     -2.39865385	      4.90570035	     -0.46122868	     38.90476984	     81.04755743	     -0.00337386	     -0.01712980	     -0.00520410	     12.80619812	      4.52914679	     -1.58163029	     25.67010964	     73.35962372
      0.11864410	     -6.87721038	      0.44017140	     -0.59962914	      0.30876707	      0.94683373	     -0.00617691	      4.02007670	     -3.45834527	     -0.78664319	      2.22438520	      0.03882285	      3.08628540	     -5.46807017	     -6.75378532	      6.39211770	     -3.56467017	     -8.55600304	      6.76062003	      0.11799508	     10.92281076	     -4.36884010	     -6.75378532	      1.99922668	      2.43650122	     -2.33450712	     -0.00527106	     -0.01740146	     -0.00536216	     -1.31875050	      4.89296634	     -0.25305936	     38.88711572	     81.43096941	     -0.00491213	     -0.01723060	     -0.00521781	     14.06695647	      4.43179718	     -1.62853058	     25.51015627	     73.57207557
      0.13559320	     -6.70648653	      0.45283793	     -0.52251205	      0.30841930	      0.94752571	     -0.00638147	      3.51220348	     -3.65291585	     -1.04217709	      1.99369818	      0.03479660	      3.09259754	     -5.35491753	     -6.82177886	      5.93982498	     -3.31025067	     -8.27875244	      6.45936031	      0.11273710	     10.88064055	     -4.68125816	     -6.82177886	      2.05523359	      2.46278550	     -2.28399255	     -0.00686312	     -0.01739376	     -0.00518762	      0.00806859	      5.02377629	     -0.13586821	     38.60688007	     80.01832608	     -0.00552136	     -0.01728182	     -0.00511601	     15.22235591	      4.34965473	     -1.95846529	     24.99832902	     72.53893078
